<svg width="121" height="94" viewBox="0 0 121 94" fill="none" xmlns="http://www.w3.org/2000/svg">
<path d="M6.01957 53.342C6.45951 53.3591 7.03325 53.508 7.32957 53.5765L8.8938 53.9286C12.5428 54.7289 16.1832 55.3943 19.8838 56.1925L20.6131 56.3491L20.4625 57.0782C19.1696 63.3432 19.1453 69.8804 21.112 75.951C21.4313 76.9364 21.8136 77.9226 22.1899 78.9241L22.4518 79.6229L21.7548 79.8871C20.4778 80.37 19.586 81.1642 19.1171 82.1071C18.6574 83.032 18.5697 84.1672 19.0104 85.4264C19.3657 86.0842 19.5628 86.3072 20.1459 86.8955L20.7242 87.4785L20.0912 87.9995C18.5284 89.2855 16.6569 90.6758 15.0603 91.8991L14.4466 92.369L13.9931 91.7406C5.6979 80.2312 3.23133 67.9061 5.24915 53.9819L5.34532 53.3161L6.01957 53.342Z" fill="url(#paint0_linear_342_15)" stroke="white" stroke-width="1.5"/>
<path d="M101.458 19.763L101.611 19.7614L101.89 19.7578L102.103 19.9373C103.47 21.0826 105.485 23.2538 106.625 24.5955C112.794 31.8563 116.365 39.1706 118.19 48.4472L118.335 49.1814L117.6 49.3253L107.234 51.3567L105.349 51.7252L104.662 51.859L104.479 51.1833C102.204 42.7502 98.0727 37.2881 91.2967 31.7613L90.679 31.2581L91.2175 30.6736C94.4722 27.142 97.7021 23.588 100.907 20.0115L101.127 19.7669L101.458 19.763Z" fill="url(#paint1_linear_342_15)" stroke="white" stroke-width="1.5"/>
<path d="M73.48 6.08633C74.6875 6.20859 77.155 6.78984 78.2762 7.06866L78.2752 7.06898C86.3293 9.02179 93.8183 12.808 100.153 18.1306L100.706 18.5954L100.264 19.1639C99.6877 19.9065 98.4611 21.1824 97.8451 21.8611L93.1986 26.9844L93.1956 26.9876C92.1716 28.1019 91.1573 29.225 90.1518 30.3569L89.7271 30.8347L89.1868 30.4907C87.9392 29.696 86.8414 28.9443 85.5987 28.2383C81.0831 25.673 76.144 23.928 71.0136 23.0837L70.275 22.9624L70.3927 22.225C71.2118 17.0698 71.9683 11.9048 72.6627 6.73117L72.7584 6.01384L73.48 6.08633Z" fill="url(#paint2_linear_342_15)" stroke="white" stroke-width="1.5"/>
<path d="M44.3766 8.47335C52.9356 5.38832 62.1947 4.73533 71.1431 5.69508L71.8384 5.76943L71.8144 6.46708C71.8025 6.8175 71.704 7.50931 71.6054 8.14758C71.5007 8.82587 71.3929 9.46583 71.3384 9.83062L71.3375 9.83402C70.9773 12.1814 70.6311 14.5312 70.2991 16.8824L70.298 16.888C70.0374 18.6353 69.7921 20.3853 69.5615 22.1369L69.4621 22.8855L68.7132 22.779C62.9919 21.9662 55.4996 22.8212 50.028 24.6565L49.3241 24.8921L49.0788 24.1906L43.9234 9.423L43.68 8.72393L44.3766 8.47335Z" fill="url(#paint3_linear_342_15)" stroke="white" stroke-width="1.5"/>
<path d="M42.1472 9.25188C42.3436 9.21097 42.5009 9.25278 42.5769 9.27666C42.6157 9.28884 42.6957 9.31881 42.7081 9.32322L43.02 9.43426L43.1486 9.74005C43.7361 11.1366 44.44 13.3687 44.9289 14.7693L48.3132 24.46L48.563 25.1744L47.8456 25.4157C41.9709 27.386 36.2146 31.4637 31.8182 35.8496L31.312 36.3547L30.782 35.8716C29.5896 34.7865 28.3899 33.7093 27.1842 32.6387L27.1792 32.6332L22.501 28.4021L21.0441 27.1085C20.5454 26.6612 20.0488 26.2031 19.5999 25.7506L19.0984 25.2453L19.5759 24.7202C26.0849 17.549 32.9021 12.9814 41.8227 9.36532L41.8455 9.3564L41.8695 9.34809C41.908 9.33538 41.9288 9.32662 41.9426 9.32068C41.9485 9.31815 41.9512 9.31745 41.9599 9.31368C41.9665 9.31079 41.9789 9.3048 41.9921 9.29941C42.0157 9.28979 42.0735 9.26728 42.1472 9.25188Z" fill="url(#paint4_linear_342_15)" stroke="white" stroke-width="1.5"/>
<path d="M18.8232 26.2316C18.9351 26.2786 19.0318 26.3512 19.0607 26.3726C19.1126 26.411 19.1702 26.4575 19.2296 26.5063C19.3497 26.6052 19.5008 26.7356 19.669 26.8843C20.0068 27.1828 20.4343 27.5717 20.8622 27.9654C21.7245 28.7587 22.5736 29.5562 22.7848 29.7477L30.2222 36.3902L30.7576 36.8682L30.3041 37.4232C29.4294 38.4926 28.5428 39.5435 27.7738 40.6281C24.6595 45.0211 22.5722 49.6744 21.0551 54.8343L20.8564 55.5088L20.1698 55.3528C18.9963 55.0868 17.8209 54.8294 16.6437 54.5796L6.24466 52.3756L5.56283 52.2304L5.65496 51.5412C5.85474 50.0502 6.46474 47.7639 6.89403 46.3745C9.2586 38.7222 12.8557 32.5091 17.9575 26.4395L18.3129 26.0178L18.8232 26.2316Z" fill="url(#paint5_linear_342_15)" stroke="white" stroke-width="1.5"/>
<path d="M21.2965 80.8892C23.0662 80.1156 25.1364 80.9054 25.9318 82.6662C26.7024 84.3723 25.9939 86.3637 24.3525 87.218L24.1908 87.2968C22.4133 88.1109 20.305 87.3288 19.4995 85.5464C18.6941 83.7637 19.5045 81.6727 21.2965 80.8892Z" fill="url(#paint6_linear_342_15)" stroke="white" stroke-width="1.5"/>
<defs>
<linearGradient id="paint0_linear_342_15" x1="5.77878" y1="66.609" x2="26.4576" y2="60.603" gradientUnits="userSpaceOnUse">
<stop stop-color="#013000"/>
<stop offset="0.1875" stop-color="#2C612B"/>
<stop offset="1" stop-color="#9FCEA2"/>
</linearGradient>
<linearGradient id="paint1_linear_342_15" x1="120.229" y1="39.9327" x2="105.968" y2="53.0652" gradientUnits="userSpaceOnUse">
<stop stop-color="#013000"/>
<stop offset="0.1875" stop-color="#2C612B"/>
<stop offset="1" stop-color="#9FCEA2"/>
</linearGradient>
<linearGradient id="paint2_linear_342_15" x1="87.0751" y1="9.49503" x2="81.4475" y2="33.5561" gradientUnits="userSpaceOnUse">
<stop stop-color="#013000"/>
<stop offset="0.1875" stop-color="#2C612B"/>
<stop offset="0.797593" stop-color="#9FCEA2"/>
</linearGradient>
<linearGradient id="paint3_linear_342_15" x1="57.4059" y1="6.54728" x2="59.8181" y2="25.8752" gradientUnits="userSpaceOnUse">
<stop stop-color="#013000"/>
<stop offset="0.1875" stop-color="#2C612B"/>
<stop offset="1" stop-color="#9FCEA2"/>
</linearGradient>
<linearGradient id="paint4_linear_342_15" x1="25.256" y1="20.3439" x2="38.8831" y2="33.3204" gradientUnits="userSpaceOnUse">
<stop stop-color="#013000"/>
<stop offset="0.1875" stop-color="#2C612B"/>
<stop offset="1" stop-color="#9FCEA2"/>
</linearGradient>
<linearGradient id="paint5_linear_342_15" x1="11.7727" y1="39.11" x2="26.4701" y2="44.8052" gradientUnits="userSpaceOnUse">
<stop stop-color="#013000"/>
<stop offset="0.1875" stop-color="#2C612B"/>
<stop offset="1" stop-color="#9FCEA2"/>
</linearGradient>
<linearGradient id="paint6_linear_342_15" x1="20.4861" y1="83.2137" x2="26.2713" y2="85.7849" gradientUnits="userSpaceOnUse">
<stop stop-color="#2C612B"/>
<stop offset="1" stop-color="#9FCEA2"/>
</linearGradient>
</defs>
</svg>
